<?xml version="1.0" standalone="no"?>
<svg data-noselect=""
  viewBox="116.82564503518 84.55434274972501 574.60490167383 431"
  width="574.60490167383"
  height="431"
  ref="svg_canvas"
  preserveAspectRatio="none"
  version="1.1" xmlns="http://www.w3.org/2000/svg"
  style="background: #ffffff;">
  <defs></defs>
  <g id="shape_h1emw1ET4L" class=""  ref="shape_h1emw1ET4L" key="shape_h1emw1ET4L" transform="translate(196.82564503518,211) rotate(0,76.52236321162,86.345039742092) scale(1,1)" style="cursor:move;display:inline;opacity:1;" filter="">
    <g style="display:inline">
      <rect fill="rgba(0,0,0,0)" width="173.04472642323964" height="192.69007948418488" x="-10" y="-10"></rect>
      <svg version="1.1" id="图层_1" xmlns="http://www.w3.org/2000/svg" xmlns:xlink="http://www.w3.org/1999/xlink" x="0px" y="0px" width="153.04472642323964" height="172.69007948418488" viewBox="0 0 226.7 255.8" enable-background="new 0 0 226.7 255.8" xml:space="preserve" class="style-removed" preserveAspectRatio="none" data-parent="shape_h1emw1ET4L">
<g>
	<g>
		<polygon fill="#01E9CE" points="226.7,0 24.6,28.4 64.2,57.7 		" stroke-width="0"></polygon>
		<polyline fill="#3485F9" points="226.7,0 103.2,162 95.1,113.6 		" stroke-width="0"></polyline>
		<g>
			<path fill="#04CDB1" d="M109.7,60.4c1.9-0.3,3.8,0.3,5.3,1.4L226.7,0L64.2,57.7l39.3,10.4C103.2,64.3,105.9,61,109.7,60.4z" stroke-width="0"></path>
			<path fill="#0359D8" d="M226.7,0L117.8,66.5c0,0,0,0.1,0,0.1c0.5,4-2.2,7.6-6.2,8.2c-1.9,0.3-3.7-0.3-5.2-1.3l-11.4,40.1L226.7,0
				z" stroke-width="0"></path>
		</g>
	</g>
	<path fill="#3485F9" d="M140.3,255.8C-9.3,202.2,97.4,75,97.4,75S-66.8,213.7,140.3,255.8z" stroke-width="0"></path>
	<path fill="#04CDB1" d="M91.6,75c0,0-110,69.6-67,136.6C24.6,211.6-62.7,154.6,91.6,75z" stroke-width="0"></path>
</g>
</svg>
    </g>
  </g>
   
  <g id="shape_wWNzsKhtmZ" class="brand_name"  ref="shape_wWNzsKhtmZ" key="shape_wWNzsKhtmZ" transform="translate(215.43054670901,40.44584001557001) rotate(0,235.06530062521,277) scale(1,1)" style="cursor:move;display:inline;opacity:1;" filter="">
    <g style="display:inline">
      <svg xmlns="http://www.w3.org/2000/svg" version="1.1" xmlns:xlink="http://www.w3.org/1999/xlink" width="627" height="554" viewBox="0 0 627 554" preserveAspectRatio="none" data-parent="shape_wWNzsKhtmZ">
        <rect fill="rgba(0,0,0,0)" width="319" height="92" x="77" y="231"></rect>
        <g data-width="318.2265625" transform="translate(77, 0)">
          <path d="M32.11-53.09L32.11-53.09Q23.24-53.09 16.99-45.72L16.99-45.72Q10.68-38.27 10.68-27.82L10.68-27.82Q10.68-17.37 16.99-10.00L16.99-10.00Q23.24-2.56 32.11-2.56L32.11-2.56Q40.98-2.56 47.30-10.00L47.30-10.00Q53.54-17.37 53.54-27.82L53.54-27.82Q53.54-38.27 47.30-45.72L47.30-45.72Q40.98-53.09 32.11-53.09ZM32.11-58.50Q44.82-58.50 53.76-49.48L53.76-49.48Q62.79-40.53 62.79-27.82L62.79-27.82Q62.79-15.11 53.76-6.17L53.76-6.17Q44.82 2.78 32.11 2.78L32.11 2.78Q19.40 2.78 10.45-6.17L10.45-6.17Q1.50-15.11 1.50-27.82L1.50-27.82Q1.50-40.53 10.45-49.48L10.45-49.48Q19.40-58.50 32.11-58.50L32.11-58.50Z" transform="translate(0 305) " fill="#0359d8" stroke="#0359d8" stroke-width="0.128" data-glyph-w="64.2919921875" data-glyph-h="75.1953125" data-glyph-ascender="66.171875" data-glyph-descender="-9.0234375"></path>
          <path d="M50.16-15.87Q50.16-7.90 43.31-2.63L43.31-2.63Q36.09 2.86 24.51 2.86L24.51 2.86Q9.47 2.86 1.50-7.59L1.50-7.59L6.39-11.50Q12.93-5.04 23.01-5.04L23.01-5.04Q30.91-5.04 35.79-8.12L35.79-8.12Q40.38-10.98 40.38-15.11L40.38-15.11Q40.38-19.48 34.74-21.81L34.74-21.81Q32.86-22.56 22.18-25.19L22.18-25.19Q13.54-27.30 9.63-30.15L9.63-30.15Q3.91-34.21 3.91-41.58L3.91-41.58Q3.91-48.80 9.93-53.46L9.93-53.46Q16.32-58.43 26.84-58.43L26.84-58.43Q39.70-58.43 47.15-49.48L47.15-49.48L42.33-45.57Q36.85-51.13 28.42-51.13L28.42-51.13Q21.43-51.13 17.14-48.35L17.14-48.35Q13.08-45.64 13.08-41.58L13.08-41.58Q13.08-37.90 18.87-35.72L18.87-35.72Q19.70-35.42 31.66-32.41L31.66-32.41Q40.23-30.23 44.37-27.22L44.37-27.22Q50.16-23.08 50.16-15.87L50.16-15.87Z" transform="translate(64.2919921875 305) " fill="#0359d8" stroke="#0359d8" stroke-width="0.128" data-glyph-w="51.6591796875" data-glyph-h="75.1953125" data-glyph-ascender="66.171875" data-glyph-descender="-9.0234375"></path>
            </g>
      </svg>
    </g>
  </g>
</svg>