<?xml version="1.0" standalone="no"?>
<svg data-noselect=""
  viewBox="116.82564503518 84.55434274972501 574.60490167383 431"
  width="574.60490167383"
  height="431"
  ref="svg_canvas"
  preserveAspectRatio="none"
  version="1.1" xmlns="http://www.w3.org/2000/svg"
  style="background: #ffffff;">
  <defs></defs>
  <g id="shape_h1emw1ET4L" class=""  ref="shape_h1emw1ET4L" key="shape_h1emw1ET4L" transform="translate(196.82564503518,211) rotate(0,76.52236321162,86.345039742092) scale(1,1)" style="cursor:move;display:inline;opacity:1;" filter="">
    <g style="display:inline">
      <rect fill="rgba(0,0,0,0)" width="173.04472642323964" height="192.69007948418488" x="-10" y="-10"></rect>
      <svg version="1.1" id="图层_1" xmlns="http://www.w3.org/2000/svg" xmlns:xlink="http://www.w3.org/1999/xlink" x="0px" y="0px" width="153.04472642323964" height="172.69007948418488" viewBox="0 0 226.7 255.8" enable-background="new 0 0 226.7 255.8" xml:space="preserve" class="style-removed" preserveAspectRatio="none" data-parent="shape_h1emw1ET4L">
<g>
	<g>
		<polygon fill="#01E9CE" points="226.7,0 24.6,28.4 64.2,57.7 		" stroke-width="0"></polygon>
		<polyline fill="#3485F9" points="226.7,0 103.2,162 95.1,113.6 		" stroke-width="0"></polyline>
		<g>
			<path fill="#04CDB1" d="M109.7,60.4c1.9-0.3,3.8,0.3,5.3,1.4L226.7,0L64.2,57.7l39.3,10.4C103.2,64.3,105.9,61,109.7,60.4z" stroke-width="0"></path>
			<path fill="#0359D8" d="M226.7,0L117.8,66.5c0,0,0,0.1,0,0.1c0.5,4-2.2,7.6-6.2,8.2c-1.9,0.3-3.7-0.3-5.2-1.3l-11.4,40.1L226.7,0
				z" stroke-width="0"></path>
		</g>
	</g>
	<path fill="#3485F9" d="M140.3,255.8C-9.3,202.2,97.4,75,97.4,75S-66.8,213.7,140.3,255.8z" stroke-width="0"></path>
	<path fill="#04CDB1" d="M91.6,75c0,0-110,69.6-67,136.6C24.6,211.6-62.7,154.6,91.6,75z" stroke-width="0"></path>
</g>
</svg>
    </g>
  </g>
  <g id="shape_DpbQu1xYWA" class="brand_slogan"  ref="shape_DpbQu1xYWA" key="shape_DpbQu1xYWA" transform="translate(266.58054894802996,280.55868549945) rotate(0,181.81890071653999,93.05000000000001) scale(1,1)" style="cursor:move;display:inline;opacity:1;" filter="">
    <g style="display:inline">
      <svg xmlns="http://www.w3.org/2000/svg" version="1.1" xmlns:xlink="http://www.w3.org/1999/xlink" width="203.4" height="186.10000000000002" viewBox="0 0 203.4 186.10000000000002" preserveAspectRatio="none" data-parent="shape_DpbQu1xYWA">
        <rect fill="rgba(0,0,0,0)" width="100" height="31" x="25.85" y="77.55000000000001"></rect>
        <g data-width="99.79490268910814" transform="translate(25.85, 0)">
          <path d="M18.82-9.49L19.10-9.75L23.60-9.75L19.90-6.41L22.23 0.03L18.51 0.03L17.11-3.88L13.70-0.80L9.18-0.80L16.00-6.95L14.40-11.43L7.70-11.43L7.70-10.26L11.40-10.26L7.70-6.23L7.70-2.79Q7.70-2.20 7.48-1.69Q7.26-1.19 6.88-0.80Q6.49-0.41 5.97-0.19Q5.45 0.03 4.89 0.03L4.89 0.03L0.18 0.03L1.16-2.20L3.44-2.20Q3.77-2.20 4.01-2.43Q4.24-2.66 4.24-3.00L4.24-3.00L4.24-3.62L0.80-3.62L4.24-7.37L4.24-11.43L0.23-11.43L0.23-13.96L4.24-13.96L4.24-15.69L0.23-15.30L0.23-17.60L10.70-18.64L10.70-16.34L7.70-16.05L7.70-13.96L13.49-13.96L11.84-18.56L15.56-18.56L17.19-13.96L18.97-13.96L17.42-18.56L20.86-18.56L23.27-11.43L21.69-11.43L19.83-11.43L18.12-11.43L18.82-9.49Z" transform="translate(0 101.55000000000001) skewX(0)" fill="#0359d8" stroke="#0359d8" stroke-width="0.043" data-glyph-w="24.948725672277035" data-glyph-h="25.85" data-glyph-ascender="22.20515" data-glyph-descender="-3.6448500000000004"></path>
          <path d="M10.00-16.08L7.06-16.08L7.06-10.57L10.00-10.57L10.00-8.04L7.06-8.04L7.06-3.00L10.00-3.21L10.00-0.65L0.52 0.03L0.52-2.53L3.46-2.74L3.46-8.04L0.52-8.04L0.52-10.57L3.46-10.57L3.46-16.08L0.52-16.08L0.52-18.64L3.46-18.64L7.06-18.64L10.00-18.64L10.00-16.08ZM11.30-18.64L22.67-18.64L22.67-16.08L11.30-16.08L11.30-18.64ZM10.73-11.45L10.73-14.01L23.24-14.01L23.24-11.45L21.17-11.45L21.17-3.33Q21.17-3.00 21.40-2.77Q21.64-2.53 22.00-2.53L22.00-2.53L23.24-2.53L23.24 0.03L20.03 0.03Q19.52 0.03 19.08-0.17Q18.64-0.36 18.31-0.69Q17.99-1.01 17.80-1.45Q17.60-1.89 17.60-2.40L17.60-2.40L17.60-11.45L16.39-11.45L14.14 0.03L10.39 0.03L12.64-11.45L10.73-11.45Z" transform="translate(24.948725672277035 101.55000000000001) skewX(0)" fill="#0359d8" stroke="#0359d8" stroke-width="0.043" data-glyph-w="24.948725672277035" data-glyph-h="25.85" data-glyph-ascender="22.20515" data-glyph-descender="-3.6448500000000004"></path>
          <path d="M18.82-9.49L19.10-9.75L23.60-9.75L19.90-6.41L22.23 0.03L18.51 0.03L17.11-3.88L13.70-0.80L9.18-0.80L16.00-6.95L14.40-11.43L7.70-11.43L7.70-10.26L11.40-10.26L7.70-6.23L7.70-2.79Q7.70-2.20 7.48-1.69Q7.26-1.19 6.88-0.80Q6.49-0.41 5.97-0.19Q5.45 0.03 4.89 0.03L4.89 0.03L0.18 0.03L1.16-2.20L3.44-2.20Q3.77-2.20 4.01-2.43Q4.24-2.66 4.24-3.00L4.24-3.00L4.24-3.62L0.80-3.62L4.24-7.37L4.24-11.43L0.23-11.43L0.23-13.96L4.24-13.96L4.24-15.69L0.23-15.30L0.23-17.60L10.70-18.64L10.70-16.34L7.70-16.05L7.70-13.96L13.49-13.96L11.84-18.56L15.56-18.56L17.19-13.96L18.97-13.96L17.42-18.56L20.86-18.56L23.27-11.43L21.69-11.43L19.83-11.43L18.12-11.43L18.82-9.49Z" transform="translate(49.89745134455407 101.55000000000001) skewX(0)" fill="#0359d8" stroke="#0359d8" stroke-width="0.043" data-glyph-w="24.948725672277035" data-glyph-h="25.85" data-glyph-ascender="22.20515" data-glyph-descender="-3.6448500000000004"></path>
          <path d="M3.26-18.66L7.11-18.66L5.95-16.60L10.65-16.60L10.65-2.84Q10.65-2.25 10.43-1.73Q10.21-1.21 9.82-0.83Q9.44-0.44 8.92-0.22Q8.40 0 7.83 0L7.83 0L0.52 0L0.52-16.60L2.07-16.60L3.26-18.66ZM4.11-2.56L6.26-2.56Q6.62-2.56 6.85-2.79Q7.08-3.02 7.08-3.36L7.08-3.36L7.08-6.36L4.11-6.36L4.11-2.56ZM7.08-8.89L7.08-14.04L4.11-14.04L4.11-8.89L7.08-8.89ZM16.47-18.66L15.90-17.01L23.27-17.01L23.27-16.85L23.27-14.45L23.27-2.79Q23.27-2.20 23.03-1.68Q22.80-1.16 22.41-0.78Q22.02-0.39 21.51-0.17Q20.99 0.05 20.42 0.05L20.42 0.05L13.47 0.05L14.48-2.20L18.87-2.20Q19.21-2.20 19.44-2.43Q19.67-2.66 19.67-3.00L19.67-3.00L19.67-14.45L15.04-14.45L14.17-14.45L11.30-14.45L12.72-18.66L16.47-18.66ZM18.92-6.77L15.15-6.77L12.74-11.71L16.52-11.71L18.92-6.77Z" transform="translate(74.8461770168311 101.55000000000001) skewX(0)" fill="#0359d8" stroke="#0359d8" stroke-width="0.043" data-glyph-w="24.948725672277035" data-glyph-h="25.85" data-glyph-ascender="22.20515" data-glyph-descender="-3.6448500000000004"></path>
        </g>
      </svg>
    </g>
  </g>
  <g id="shape_wWNzsKhtmZ" class="brand_name"  ref="shape_wWNzsKhtmZ" key="shape_wWNzsKhtmZ" transform="translate(215.43054670901,40.44584001557001) rotate(0,235.06530062521,277) scale(1,1)" style="cursor:move;display:inline;opacity:1;" filter="">
    <g style="display:inline">
      <svg xmlns="http://www.w3.org/2000/svg" version="1.1" xmlns:xlink="http://www.w3.org/1999/xlink" width="627" height="554" viewBox="0 0 627 554" preserveAspectRatio="none" data-parent="shape_wWNzsKhtmZ">
        <rect fill="rgba(0,0,0,0)" width="319" height="92" x="77" y="231"></rect>
        <g data-width="318.2265625" transform="translate(77, 0)">
          <path d="M32.11-53.09L32.11-53.09Q23.24-53.09 16.99-45.72L16.99-45.72Q10.68-38.27 10.68-27.82L10.68-27.82Q10.68-17.37 16.99-10.00L16.99-10.00Q23.24-2.56 32.11-2.56L32.11-2.56Q40.98-2.56 47.30-10.00L47.30-10.00Q53.54-17.37 53.54-27.82L53.54-27.82Q53.54-38.27 47.30-45.72L47.30-45.72Q40.98-53.09 32.11-53.09ZM32.11-58.50Q44.82-58.50 53.76-49.48L53.76-49.48Q62.79-40.53 62.79-27.82L62.79-27.82Q62.79-15.11 53.76-6.17L53.76-6.17Q44.82 2.78 32.11 2.78L32.11 2.78Q19.40 2.78 10.45-6.17L10.45-6.17Q1.50-15.11 1.50-27.82L1.50-27.82Q1.50-40.53 10.45-49.48L10.45-49.48Q19.40-58.50 32.11-58.50L32.11-58.50Z" transform="translate(0 305) " fill="#0359d8" stroke="#0359d8" stroke-width="0.128" data-glyph-w="64.2919921875" data-glyph-h="75.1953125" data-glyph-ascender="66.171875" data-glyph-descender="-9.0234375"></path>
          <path d="M50.16-15.87Q50.16-7.90 43.31-2.63L43.31-2.63Q36.09 2.86 24.51 2.86L24.51 2.86Q9.47 2.86 1.50-7.59L1.50-7.59L6.39-11.50Q12.93-5.04 23.01-5.04L23.01-5.04Q30.91-5.04 35.79-8.12L35.79-8.12Q40.38-10.98 40.38-15.11L40.38-15.11Q40.38-19.48 34.74-21.81L34.74-21.81Q32.86-22.56 22.18-25.19L22.18-25.19Q13.54-27.30 9.63-30.15L9.63-30.15Q3.91-34.21 3.91-41.58L3.91-41.58Q3.91-48.80 9.93-53.46L9.93-53.46Q16.32-58.43 26.84-58.43L26.84-58.43Q39.70-58.43 47.15-49.48L47.15-49.48L42.33-45.57Q36.85-51.13 28.42-51.13L28.42-51.13Q21.43-51.13 17.14-48.35L17.14-48.35Q13.08-45.64 13.08-41.58L13.08-41.58Q13.08-37.90 18.87-35.72L18.87-35.72Q19.70-35.42 31.66-32.41L31.66-32.41Q40.23-30.23 44.37-27.22L44.37-27.22Q50.16-23.08 50.16-15.87L50.16-15.87Z" transform="translate(64.2919921875 305) " fill="#0359d8" stroke="#0359d8" stroke-width="0.128" data-glyph-w="51.6591796875" data-glyph-h="75.1953125" data-glyph-ascender="66.171875" data-glyph-descender="-9.0234375"></path>
          <path d="M1.50-57.22L11.50-57.22L32.11-9.25L52.79-57.22L62.79-57.22L37.45 1.73L26.84 1.73L1.50-57.22Z" transform="translate(115.951171875 305) " fill="#0359d8" stroke="#0359d8" stroke-width="0.128" data-glyph-w="64.2919921875" data-glyph-h="75.1953125" data-glyph-ascender="66.171875" data-glyph-descender="-9.0234375"></path>
          <path d="M3.01 1.73L3.01-57.22L12.18-57.22L12.18 1.73L3.01 1.73Z" transform="translate(180.2431640625 305) " fill="#0359d8" stroke="#0359d8" stroke-width="0.128" data-glyph-w="15.189453125" data-glyph-h="75.1953125" data-glyph-ascender="66.171875" data-glyph-descender="-9.0234375"></path>
          <path d="M3.01-57.22L3.01 1.73L12.18 1.73L12.18-46.17L45.42 1.73L58.13 1.73L58.13-57.22L48.95-57.22L48.95-9.32L15.64-57.22L3.01-57.22Z" transform="translate(195.4326171875 305) " fill="#0359d8" stroke="#0359d8" stroke-width="0.128" data-glyph-w="61.1337890625" data-glyph-h="75.1953125" data-glyph-ascender="66.171875" data-glyph-descender="-9.0234375"></path>
          <path d="M57.75-30.45L32.11-30.45L32.11-25.12L48.58-25.12L48.58-6.62Q42.41-2.48 34.97-2.48L34.97-2.48Q24.89-2.48 17.82-9.63L17.82-9.63Q10.68-16.77 10.68-26.84L10.68-26.84Q10.68-36.85 17.82-43.99L17.82-43.99Q24.89-51.13 34.97-51.13L34.97-51.13Q47.37-51.13 55.49-45.04L55.49-45.04L59.33-48.88Q49.40-58.43 34.97-58.43L34.97-58.43Q21.13-58.43 11.28-49.40L11.28-49.40Q1.50-40.46 1.50-27.75L1.50-27.75Q1.50-15.04 11.28-6.09L11.28-6.09Q21.13 2.86 34.97 2.86L34.97 2.86Q48.13 2.86 57.75-5.34L57.75-5.34L57.75-30.45Z" transform="translate(256.56640625 305) " fill="#0359d8" stroke="#0359d8" stroke-width="0.128" data-glyph-w="61.66015625" data-glyph-h="75.1953125" data-glyph-ascender="66.171875" data-glyph-descender="-9.0234375"></path>
        </g>
      </svg>
    </g>
  </g>
</svg>